<?xml version="1.0" encoding="utf-8"?>
<!-- Generator: Adobe Illustrator 23.0.2, SVG Export Plug-In . SVG Version: 6.00 Build 0)  -->
<svg version="1.1" id="Calque_1" xmlns="http://www.w3.org/2000/svg" xmlns:xlink="http://www.w3.org/1999/xlink" x="0px" y="0px"
	 viewBox="0 0 100.1 100" style="enable-background:new 0 0 100.1 100;" xml:space="preserve">
<style type="text/css">
	.st0{fill:#FFFFFF;}
	.st1{fill:#9E9E9E;}
	.st2{fill:#95D9C3;}
	.st3{opacity:0.25;fill:#FFFFFF;enable-background:new    ;}
</style>
<title>Fichier 4</title>
<g>
	<g id="Calque_1-2">
		<path class="st0" d="M36.1,80.7c-6.8,0-12.4-5.6-12.4-12.4c0-2.7,0.9-5.3,2.5-7.4L54,24.3c4.2-5.4,12-6.4,17.4-2.1
			c5.3,4.1,6.3,11.8,2.4,17.1L46,75.8C43.7,78.8,40,80.7,36.1,80.7z"/>
		<path class="st1" d="M63.9,20L63.9,20c5.9,0,10.8,4.3,11.6,10.2c0.4,3.1-0.4,6.2-2.3,8.7L45.5,75.4c-2.3,2.9-5.7,4.7-9.4,4.6
			c-6.5,0-11.8-5.3-11.8-11.8c0-2.6,0.8-5,2.4-7.1l27.7-36.5C56.7,21.7,60.2,19.9,63.9,20 M63.9,18.7c-4.1,0-7.9,1.9-10.4,5.1
			L25.8,60.4c-4.3,5.8-3.2,13.9,2.5,18.3l0,0c5.8,4.3,13.9,3.2,18.3-2.5l27.8-36.5c4.3-5.8,3.3-13.9-2.5-18.3l0,0
			C69.5,19.7,66.7,18.7,63.9,18.7z"/>
		<path class="st2" d="M36.1,80.7c-6.8,0-12.4-5.6-12.4-12.4c0-2.7,0.9-5.3,2.5-7.4L39.8,43l19.8,15L46,75.8
			C43.7,78.8,40,80.7,36.1,80.7z"/>
		<path class="st1" d="M39.9,43.9l18.8,14.3L45.5,75.4c-2.3,2.9-5.7,4.7-9.4,4.6c-6.5,0-11.8-5.3-11.8-11.8c0-2.6,0.8-5,2.4-7.1
			L39.9,43.9 M39.7,42.1L25.8,60.4c-4.3,5.8-3.2,13.9,2.5,18.3l0,0c5.8,4.3,13.9,3.2,18.3-2.5l13.8-18.3
			C60.3,57.9,39.7,42.1,39.7,42.1z"/>
		<path class="st3" d="M28,64.4l29.9-39.5c0.6-0.8,1.8-1,2.6-0.4l0,0c0.8,0.6,1,1.8,0.4,2.6l-30,39.5c-0.6,0.8-1.8,1-2.6,0.4l0,0
			C27.5,66.4,27.4,65.2,28,64.4z"/>
	</g>
</g>
</svg>
