<?xml version="1.0" encoding="utf-8"?>
<!-- Generator: Adobe Illustrator 23.0.2, SVG Export Plug-In . SVG Version: 6.00 Build 0)  -->
<svg version="1.1" id="Calque_1" xmlns="http://www.w3.org/2000/svg" xmlns:xlink="http://www.w3.org/1999/xlink" x="0px" y="0px"
	 viewBox="0 0 100.1 100" style="enable-background:new 0 0 100.1 100;" xml:space="preserve">
<style type="text/css">
	.st0{fill:#FFFFFF;}
	.st1{fill:#9E9E9E;}
	.st2{fill:#95D9C3;}
	.st3{opacity:0.25;fill:#FFFFFF;enable-background:new    ;}
</style>
<title>Fichier 4</title>
<g>
	<g id="Calque_1-2">
		<path class="st0" d="M30.5,99.1c-10.9,0-19.8-8.9-19.8-19.8c0-4.3,1.4-8.5,4-11.9L59.1,8.8c6.7-8.6,19.2-10.2,27.8-3.4
			c8.5,6.6,10.1,18.8,3.8,27.4L46.4,91.2C42.6,96.1,36.8,99.1,30.5,99.1z"/>
		<path class="st1" d="M74.9,2L74.9,2c9.4,0,17.3,6.9,18.6,16.3c0.7,4.9-0.6,9.9-3.6,13.9L45.6,90.6c-3.6,4.7-9.1,7.5-15,7.4
			c-10.4,0-18.8-8.5-18.8-18.9c0-4.1,1.3-8,3.8-11.3L59.9,9.4C63.5,4.7,69,1.9,74.9,2 M74.9,0c-6.5,0-12.7,3-16.6,8.2L14,66.6
			c-6.9,9.2-5.1,22.2,4,29.2l0,0c9.2,6.9,22.2,5.1,29.2-4l44.4-58.4c6.9-9.2,5.2-22.2-4-29.2l0,0C83.9,1.5,79.5,0,74.9,0z"/>
		<path class="st2" d="M30.5,99.1c-10.9,0-19.8-8.9-19.8-19.8c0-4.3,1.4-8.5,4-11.9l21.7-28.6l31.6,24L46.4,91.2
			C42.6,96.1,36.8,99.1,30.5,99.1z"/>
		<path class="st1" d="M36.5,40.2l30,22.8L45.6,90.6c-3.6,4.7-9.1,7.5-15,7.4c-10.4,0-18.8-8.5-18.8-18.9c0-4.1,1.3-8,3.8-11.3
			L36.5,40.2 M36.2,37.4L14,66.6c-6.9,9.2-5.1,22.2,4,29.2l0,0c9.2,6.9,22.2,5.1,29.2-4l22.1-29.3C69.2,62.6,36.2,37.4,36.2,37.4z"
			/>
		<path class="st3" d="M17.5,73L65.4,9.8c1-1.3,2.9-1.6,4.2-0.6l0,0c1.3,1,1.6,2.9,0.6,4.2L22.2,76.6c-1,1.3-2.9,1.6-4.2,0.6l0,0
			C16.7,76.2,16.5,74.3,17.5,73z"/>
	</g>
</g>
</svg>
