<svg xmlns="http://www.w3.org/2000/svg" viewBox="0 0 280.67 68.16"><defs><style>.cls-1{font-size:40px;font-family:Poppins-Regular, Poppins;}.cls-1,.cls-4{fill:#95d9c3;}.cls-2,.cls-5{fill:#fff;}.cls-3{fill:#9e9e9e;}.cls-5{opacity:0.25;}</style></defs><title>Fichier 3</title><g id="Calque_2" data-name="Calque 2"><g id="Calque_1-2" data-name="Calque 1"><text class="cls-1" transform="translate(54.27 45.24)">DataSanté</text><path class="cls-2" d="M10.47,50a10,10,0,0,1-8-16L24.89,4.44A10,10,0,0,1,40.82,16.53L18.46,46A10,10,0,0,1,10.47,50Z"/><path class="cls-3" d="M32.87,1h0a9.46,9.46,0,0,1,9.38,8.2,9.4,9.4,0,0,1-1.83,7L18.06,45.71a9.45,9.45,0,0,1-7.59,3.74A9.5,9.5,0,0,1,2.92,34.22L25.28,4.75A9.46,9.46,0,0,1,32.87,1m0-1a10.5,10.5,0,0,0-8.38,4.14L2.12,33.62a10.53,10.53,0,0,0,2,14.71h0a10.53,10.53,0,0,0,14.71-2L41.22,16.84a10.54,10.54,0,0,0-2-14.72h0A10.46,10.46,0,0,0,32.87,0Z"/><path class="cls-4" d="M10.47,50a10,10,0,0,1-8-16L13.4,19.58,29.33,31.67,18.46,46A10,10,0,0,1,10.47,50Z"/><path class="cls-3" d="M13.5,20.28,28.63,31.77,18.06,45.71a9.45,9.45,0,0,1-7.59,3.74A9.5,9.5,0,0,1,2.92,34.22L13.5,20.28m-.19-1.4L2.12,33.62a10.53,10.53,0,0,0,2,14.71h0a10.53,10.53,0,0,0,14.71-2L30,31.57,13.31,18.88Z"/><rect class="cls-5" x="-4.34" y="20.31" width="43" height="3" rx="1.5" transform="translate(-10.58 22.3) rotate(-52.81)"/><circle class="cls-4" cx="276.67" cy="41.23" r="4"/></g></g></svg>