<?xml version="1.0" encoding="utf-8"?>
<!-- Generator: Adobe Illustrator 23.0.2, SVG Export Plug-In . SVG Version: 6.00 Build 0)  -->
<svg version="1.1" id="Calque_1" xmlns="http://www.w3.org/2000/svg" xmlns:xlink="http://www.w3.org/1999/xlink" x="0px" y="0px"
	 viewBox="0 0 280.7 68.2" style="enable-background:new 0 0 280.7 68.2;" xml:space="preserve">
<style type="text/css">
	.st0{fill:#95D9C3;}
	.st1{font-family:'ArialMT';}
	.st2{font-size:40px;}
	.st3{fill:#FFFFFF;}
	.st4{fill:#9E9E9E;}
	.st5{opacity:0.25;fill:#FFFFFF;enable-background:new    ;}
</style>
<title>Fichier 3</title>
<g>
	<g id="Calque_1-2">
		<text transform="matrix(1 0 0 1 54.27 45.24)" class="st0 st1 st2">DataSanté</text>
		<path class="st3" d="M10.5,50c-5.5,0-10-4.5-10-10c0-2.2,0.7-4.3,2-6L24.9,4.4c3.4-4.4,9.7-5.1,14-1.7c4.3,3.3,5.1,9.5,1.9,13.8
			L18.5,46C16.6,48.5,13.6,50,10.5,50z"/>
		<path class="st4" d="M32.9,1L32.9,1c4.7,0,8.7,3.5,9.4,8.2c0.3,2.5-0.3,5-1.8,7L18.1,45.7c-1.8,2.4-4.6,3.8-7.6,3.7
			c-5.2,0-9.5-4.3-9.5-9.5c0-2.1,0.7-4.1,1.9-5.7L25.3,4.8C27.1,2.4,29.9,1,32.9,1 M32.9,0c-3.3,0-6.4,1.5-8.4,4.1L2.1,33.6
			c-3.5,4.6-2.6,11.2,2,14.7l0,0c4.6,3.5,11.2,2.6,14.7-2l22.4-29.5c3.5-4.6,2.6-11.2-2-14.7l0,0C37.4,0.7,35.2,0,32.9,0z"/>
		<path class="st0" d="M10.5,50c-5.5,0-10-4.5-10-10c0-2.2,0.7-4.3,2-6l10.9-14.4l15.9,12.1L18.5,46C16.6,48.5,13.6,50,10.5,50z"/>
		<path class="st4" d="M13.5,20.3l15.1,11.5L18.1,45.7c-1.8,2.4-4.6,3.8-7.6,3.7c-5.2,0-9.5-4.3-9.5-9.5c0-2.1,0.7-4.1,1.9-5.7
			L13.5,20.3 M13.3,18.9L2.1,33.6c-3.5,4.6-2.6,11.2,2,14.7l0,0c4.6,3.5,11.2,2.6,14.7-2L30,31.6C30,31.6,13.3,18.9,13.3,18.9z"/>
		<path class="st5" d="M3.9,36.8L28.1,5c0.5-0.7,1.4-0.8,2.1-0.3l0,0c0.7,0.5,0.8,1.4,0.3,2.1L6.3,38.7c-0.5,0.7-1.4,0.8-2.1,0.3
			l0,0C3.5,38.4,3.4,37.5,3.9,36.8z"/>
	</g>
</g>
</svg>
