<?xml version="1.0" standalone="no"?>
<!DOCTYPE svg PUBLIC "-//W3C//DTD SVG 20010904//EN"
 "http://www.w3.org/TR/2001/REC-SVG-20010904/DTD/svg10.dtd">
<svg version="1.0" xmlns="http://www.w3.org/2000/svg"
 width="101.000000pt" height="101.000000pt" viewBox="0 0 101.000000 101.000000"
 preserveAspectRatio="xMidYMid meet">
<metadata>
Created by potrace 1.11, written by Peter Selinger 2001-2013
</metadata>
<g transform="translate(0.000000,101.000000) scale(0.100000,-0.100000)"
fill="#000000" stroke="none">
<path d="M626 977 c-27 -15 -77 -71 -158 -177 -305 -399 -356 -467 -372 -497
-10 -20 -16 -56 -16 -96 0 -85 35 -143 111 -181 68 -33 120 -34 187 0 47 23
70 51 293 347 134 178 249 339 257 362 29 83 -9 187 -85 236 -61 38 -156 41
-217 6z m177 -11 c44 -18 94 -77 107 -126 14 -52 4 -101 -29 -149 -63 -91
-217 -290 -225 -290 -5 -1 -73 47 -150 106 -78 58 -142 108 -144 109 -2 1 49
71 112 156 133 175 173 208 248 208 27 0 63 -6 81 -14z m-395 -414 l23 -18
-116 -151 c-63 -84 -119 -155 -124 -158 -17 -10 -41 7 -41 28 0 18 217 317
230 317 3 0 15 -8 28 -18z"/>
</g>
</svg>
