<svg width="22" height="22" viewBox="0 0 22 22" fill="none" xmlns="http://www.w3.org/2000/svg">
<path fill-rule="evenodd" clip-rule="evenodd" d="M21.5963 19.7592L15.573 13.7336C16.6527 12.261 17.2311 10.4807 17.223 8.65473C17.2024 3.88836 13.3473 0.027617 8.58093 8.75566e-05C6.29997 -0.0102325 4.10962 0.892119 2.49783 2.50612C0.886042 4.12013 -0.013302 6.31172 0.000148736 8.59266C0.0207497 13.3595 3.87624 17.2206 8.64301 17.2481C10.4764 17.256 12.2632 16.6709 13.7368 15.58L13.7431 15.5753L19.7609 21.5962C20.0862 21.9376 20.571 22.0757 21.0275 21.9572C21.4839 21.8387 21.8402 21.482 21.9583 21.0255C22.0765 20.569 21.9379 20.0843 21.5963 19.7592ZM8.63675 15.5227C4.82354 15.5007 1.7392 12.4122 1.72246 8.59894C1.71217 6.77443 2.4317 5.02151 3.72089 3.7304C5.01008 2.43929 6.76193 1.71715 8.58646 1.72473C12.3997 1.74667 15.484 4.83521 15.5007 8.64845C15.511 10.473 14.7915 12.2259 13.5023 13.517C12.2131 14.8081 10.4613 15.5302 8.63675 15.5227Z" fill="#282828"/>
</svg>
